<svg xmlns="http://www.w3.org/2000/svg"  viewBox="0 0 48 48" width="48px" height="48px"><path fill="#38b47b" d="M12.399,31.569c0,0,3.158-1.067,6.776-0.748s7.563,0.01,7.563,0.01l0.083-6.908l10.459,7.756 l0.106,5.917c0.046,2.589-2.097,4.683-4.685,4.576l-19.005-0.785L12.399,31.569z"/><path fill="#febf10" d="M12.467,16.238c1.008,0.136,8.84,1.144,13.775,0.383c0.211,1.924,0.498,7.012,0.498,7.012 l11.535-7.41c0,0,1.712-8.755-2.617-9.538s-2.959,0.587-9.929,0.147c-6.97-0.44-13.451-0.13-13.451-0.13 S12.396,16.228,12.467,16.238z"/><path fill="#2b8c5e" d="M26.478,23.576l12.03-7.164L37.15,31.908c0,0-2.438-2.315-4.59-3.245 C30.408,27.734,26.478,23.576,26.478,23.576z"/><path fill="#38b47b" d="M38.432,16.272l-1.171,15.665l5.456,5.302l2.772,1.37c0,0,1.982,0.618,1.982-3.131 s-0.503-21.651-0.503-21.651s-0.483-3.297-2.595-1.844S39.723,16.011,38.432,16.272z"/><path fill="#1e4384" d="M2.492,31.095l10.242,0.242l0.717,9.946l-7.832-0.095c-1.616-0.02-2.926-1.315-2.963-2.931 L2.492,31.095z"/><polygon fill="#4b7bb2" points="12.351,31.679 2.492,30.872 2.348,17.813 3,16.574 12.509,16.739"/><polygon fill="#d03827" points="3,16.412 12.342,6.88 12.717,16.451"/><path fill="#d6e5e5" d="M12.489,16.621c0.786,8.095-0.401,10.216,0.111,14.813c2.024-0.648,3.829-0.616,5.954-0.619 c2.825-0.004,5.393,0.46,8.184,0.016c0.028-4.568-0.321-9.543-0.292-14.111c-4.632,0.38-9.403,0.231-13.944-0.309"/><path fill="#010101" d="M12.6,31.934c-0.095,0-0.19-0.027-0.272-0.081c-0.126-0.082-0.208-0.215-0.225-0.364 c-0.23-2.067-0.125-3.63-0.004-5.439c0.154-2.292,0.329-4.889-0.107-9.38l0.485-0.047l0.084-0.707 c4.765,0.567,9.423,0.671,13.844,0.307c0.14-0.01,0.278,0.037,0.381,0.132c0.103,0.095,0.161,0.229,0.16,0.37 c-0.014,2.272,0.067,4.691,0.146,7.031c0.079,2.353,0.161,4.785,0.146,7.08c-0.001,0.245-0.18,0.453-0.421,0.491 c-1.884,0.3-3.696,0.195-5.447,0.095c-0.902-0.052-1.834-0.105-2.78-0.105c-0.011,0-0.023,0-0.035,0h-0.299 c-1.958,0.001-3.648,0.001-5.503,0.595C12.703,31.926,12.651,31.934,12.6,31.934z M13.025,16.976 c0.396,4.327,0.224,6.88,0.072,9.141c-0.106,1.582-0.2,2.969-0.058,4.668c1.766-0.468,3.378-0.469,5.216-0.47h0.298 c0.942,0.01,1.945,0.054,2.873,0.107c1.637,0.092,3.19,0.182,4.813-0.024c0.003-2.149-0.073-4.415-0.147-6.61 c-0.073-2.164-0.148-4.396-0.148-6.527C21.799,17.564,17.458,17.468,13.025,16.976z"/><path fill="#010101" d="M31.569,42.87c-0.78,0-1.532-0.063-2.199-0.121c-3.933-0.335-8.071-0.545-12.073-0.748 c-1.369-0.069-2.729-0.138-4.069-0.212l0,0c-2.098-0.113-3.687-0.133-5.312-0.069c-1.937,0.078-3.884-0.049-4.989-1.492 c-0.823-1.075-0.817-2.516-0.813-3.568c0.013-2.938-0.024-6.028-0.061-9.017c-0.036-2.993-0.074-6.088-0.061-9.034 C1.997,18.137,2,17.603,2.188,17.088c0.214-0.582,0.62-1.025,0.979-1.416c1.447-1.579,2.98-3.148,4.461-4.667 c1.477-1.513,3.003-3.077,4.44-4.644c0.083-0.091,0.197-0.147,0.319-0.16c3.071-0.305,6.175-0.106,9.177,0.087 c3.072,0.198,6.249,0.402,9.339,0.054c0.288-0.032,0.576-0.071,0.865-0.109c0.937-0.125,1.906-0.256,2.887-0.178 c1.563,0.122,2.852,0.796,3.534,1.849c0.563,0.868,0.672,1.896,0.73,2.791c0.267,4.125-0.145,8.358-0.542,12.451 c-0.396,4.077-0.805,8.293-0.534,12.361l0.028,0.409c0.1,1.374,0.203,2.794-0.431,4.081c-0.639,1.299-1.981,2.267-3.686,2.654 C33.032,42.815,32.288,42.87,31.569,42.87z M9.759,40.684c1.064,0,2.194,0.035,3.524,0.108l0,0 c1.339,0.073,2.697,0.142,4.065,0.211c4.011,0.204,8.158,0.414,12.106,0.75c1.543,0.131,2.822,0.209,4.08-0.077 c1.387-0.315,2.512-1.107,3.01-2.12c0.513-1.043,0.42-2.326,0.33-3.567l-0.029-0.415c-0.275-4.149,0.138-8.407,0.537-12.524 c0.394-4.054,0.801-8.245,0.539-12.29c-0.05-0.769-0.14-1.645-0.572-2.312c-0.511-0.79-1.521-1.298-2.772-1.396 c-0.877-0.069-1.751,0.048-2.677,0.172c-0.295,0.039-0.591,0.079-0.886,0.112c-3.18,0.357-6.4,0.15-9.515-0.05 c-2.899-0.186-5.897-0.38-8.824-0.107c-1.409,1.531-2.894,3.052-4.332,4.525c-1.477,1.513-3.003,3.077-4.44,4.644 c-0.311,0.338-0.631,0.688-0.777,1.084c-0.128,0.35-0.13,0.772-0.132,1.181c-0.013,2.938,0.024,6.028,0.061,9.017 c0.036,2.993,0.074,6.088,0.061,9.034c-0.005,1.177,0.037,2.213,0.606,2.956c0.829,1.083,2.492,1.171,4.155,1.102 C8.5,40.696,9.117,40.684,9.759,40.684z"/><path fill="#010101" d="M45.835,38.978c-0.492,0-0.959-0.155-1.308-0.293c-2.48-0.985-4.301-2.915-6.061-4.78 c-1.322-1.402-2.689-2.852-4.312-3.859c-0.406-0.252-0.828-0.479-1.251-0.705c-0.238-0.128-0.478-0.256-0.713-0.388 c-2.091-1.173-3.941-2.675-5.502-4.464c-0.152-0.174-0.162-0.424-0.038-0.607c-0.104-0.038-0.196-0.11-0.257-0.211 c-0.143-0.236-0.067-0.544,0.169-0.687c2.611-1.579,5.037-3.079,7.462-4.579c2.421-1.497,4.841-2.994,7.447-4.569 c0.35-0.211,0.829-0.666,1.293-1.105c0.599-0.567,1.218-1.154,1.761-1.429c0.451-0.228,1.003-0.171,1.553,0.158 c0.656,0.393,1.363,1.253,1.383,2.074l0.515,22.152c0.041,1.748-0.45,2.818-1.459,3.181C46.29,38.945,46.061,38.978,45.835,38.978z M27.289,23.711c0.057,0.028,0.109,0.068,0.154,0.119c1.485,1.703,3.248,3.132,5.238,4.25c0.229,0.129,0.463,0.254,0.696,0.379 c0.441,0.236,0.882,0.473,1.306,0.736c1.732,1.077,3.146,2.574,4.512,4.022c1.763,1.869,3.428,3.634,5.702,4.537 c0.356,0.142,0.878,0.314,1.282,0.168c0.559-0.201,0.827-0.946,0.797-2.216l-0.515-22.152c-0.009-0.379-0.428-0.958-0.896-1.239 c-0.239-0.143-0.458-0.19-0.588-0.123c-0.413,0.208-0.978,0.744-1.524,1.262c-0.525,0.499-1.021,0.969-1.463,1.236 c-2.604,1.573-5.021,3.069-7.438,4.564C32.188,20.715,29.824,22.177,27.289,23.711z"/><path fill="#010101" d="M8.119,17.121c-0.804,0-1.608-0.014-2.429-0.027c-0.774-0.013-1.559-0.026-2.365-0.028l0.002-1 c0.812,0.002,1.602,0.015,2.38,0.028c2.124,0.035,4.138,0.07,6.293-0.133c-0.007-1.091-0.024-2.205-0.041-3.323 c-0.028-1.825-0.058-3.712-0.039-5.509c0.003-0.218,0.113-0.368,0.197-0.456l0.205-0.371c0.22-0.105,0.478-0.053,0.639,0.128 c0.215,0.24,0.195,0.602-0.042,0.856c-0.016,1.739,0.013,3.567,0.04,5.336c0.02,1.278,0.039,2.55,0.043,3.789 c0.001,0.256-0.191,0.471-0.446,0.499C11.02,17.077,9.571,17.121,8.119,17.121z M12.603,6.804l0.145,0.403 c0.196-0.092,0.259-0.298,0.234-0.461L12.603,6.804z M12.518,6.816l-0.001,0.011l0.015-0.013L12.518,6.816z"/><path fill="#010101" d="M13.061,41.136l-0.995-9.198c-3.175-0.03-6.349-0.145-9.48-0.344l0.063-0.998 c3.176,0.202,6.395,0.317,9.567,0.342c0.122,0.001,0.443,0.004,0.659,0.269c0.137,0.17,0.157,0.357,0.166,0.447l1.014,9.375 L13.061,41.136z"/></svg>